<svg width="129" height="40" viewBox="0 0 129 40" fill="none" xmlns="http://www.w3.org/2000/svg">
<g clip-path="url(#clip0_449_1258)">
<path d="M15.9451 21.4994L13.0694 20.1955L13.0802 19.1705C13.0802 18.4787 12.4717 17.8884 11.2548 17.4067C10.4109 17.0734 9.48732 16.9105 8.48044 16.9105C7.47356 16.9105 6.54998 17.0771 5.70609 17.4067C4.48913 17.8992 3.88066 18.486 3.88066 19.1705V32.5859C3.88066 33.2777 4.48913 33.8681 5.70609 34.3498C6.54998 34.683 7.47356 34.846 8.48044 34.846C9.48732 34.846 10.4109 34.6794 11.2548 34.3498C12.4717 33.8572 13.0802 33.2705 13.0802 32.5859V28.9677H13.2323L16.0972 30.3259V32.5859C16.0972 34.4259 14.9564 35.8167 12.6746 36.762C11.3997 37.2944 10.0016 37.5624 8.48406 37.5624C6.9665 37.5624 5.56845 37.2944 4.29355 36.762C2.01177 35.813 0.87088 34.4222 0.87088 32.5823V19.1669C0.87088 17.327 2.01177 15.9362 4.29355 14.9909C5.56845 14.4584 6.9665 14.1904 8.48406 14.1904C10.0016 14.1904 11.3997 14.4584 12.6746 14.9909C14.9564 15.9362 16.0972 17.327 16.0972 19.1669V21.4994H15.9451Z" fill="#81FE88"/>
<path d="M16.0936 30.3223C16.0936 30.3223 13.4967 29.1995 13.0694 27.9102L13.0802 29.4748L16.0936 30.3223Z" fill="#81FE88"/>
<path d="M13.0259 22.1043L15.9017 23.4082L15.8908 24.4332C15.8908 25.125 16.4993 25.7153 17.7162 26.197C18.5601 26.5303 19.4837 26.6932 20.4906 26.6932C21.4938 26.6932 22.421 26.5266 23.2649 26.197C24.4819 25.7045 25.0904 25.1177 25.0904 24.4332V11.0214C25.0904 10.3296 24.4819 9.73924 23.2649 9.25753C22.421 8.92431 21.4975 8.76133 20.4906 8.76133C19.4873 8.76133 18.5601 8.92793 17.7162 9.25753C16.4993 9.7501 15.8908 10.3368 15.8908 11.0214V14.6396H15.7387L12.8738 13.2814V11.0214C12.8738 9.18147 14.0147 7.79067 16.2965 6.84536C17.5714 6.31294 18.9694 6.04492 20.487 6.04492C22.0045 6.04492 23.4026 6.31294 24.6775 6.84536C26.9593 7.79067 28.1001 9.18147 28.1001 11.0214V24.4368C28.1001 26.2767 26.9593 27.6675 24.6775 28.6128C23.4026 29.1452 22.0045 29.4133 20.487 29.4133C18.9694 29.4133 17.5714 29.1452 16.2965 28.6128C14.0147 27.6675 12.8738 26.2767 12.8738 24.4368V22.1043H13.0259Z" fill="#81FE88"/>
<path d="M12.8774 13.2812C12.8774 13.2812 15.4743 14.404 15.9017 15.6934L15.8908 14.1288L12.8774 13.2812Z" fill="#81FE88"/>
<path d="M45.6481 31.8432V34.6176C45.6481 35.7367 44.8549 36.6132 43.2686 37.2398C42.4102 37.5694 41.4431 37.736 40.3638 37.736C39.2845 37.736 38.3175 37.5694 37.4591 37.2398C35.8727 36.6132 35.0795 35.7367 35.0795 34.6176V26.3416C35.0795 25.2224 35.8727 24.3459 37.4591 23.7193C38.3175 23.3897 39.2845 23.2231 40.3638 23.2231C41.4431 23.2231 42.4102 23.3897 43.2686 23.7193C44.8549 24.3459 45.6481 25.2224 45.6481 26.3416V27.9714L43.2287 29.1159H43.102V26.7871C43.102 26.3633 42.8376 26.0446 42.3051 25.8309C41.7763 25.6172 41.128 25.5122 40.3638 25.5122C39.5996 25.5122 38.9513 25.6172 38.4225 25.8309C37.8937 26.0446 37.6257 26.3597 37.6257 26.7871V34.1721C37.6257 34.5958 37.8901 34.9146 38.4225 35.1283C38.9513 35.3419 39.5996 35.447 40.3638 35.447C41.128 35.447 41.7763 35.3419 42.3051 35.1283C42.8339 34.9146 43.102 34.5995 43.102 34.1721V32.9877L45.5214 31.8432H45.6481Z" fill="#E1E1E1"/>
<path d="M49.3388 34.6176V26.3416C49.3388 25.2224 50.132 24.3459 51.7184 23.7193C52.5768 23.3897 53.5438 23.2231 54.6232 23.2231C55.7025 23.2231 56.6695 23.3897 57.5279 23.7193C59.1143 24.3459 59.9075 25.2224 59.9075 26.3416V34.6176C59.9075 35.7367 59.1143 36.6132 57.5279 37.2398C56.6695 37.5694 55.7025 37.736 54.6232 37.736C53.5438 37.736 52.5768 37.5694 51.7184 37.2398C50.132 36.6132 49.3388 35.7367 49.3388 34.6176ZM51.885 34.1721C51.885 34.5958 52.1494 34.9146 52.6818 35.1283C53.2142 35.3419 53.8589 35.447 54.6232 35.447C55.3874 35.447 56.0357 35.3419 56.5645 35.1283C57.0933 34.9146 57.3613 34.5995 57.3613 34.1721V26.7871C57.3613 26.3633 57.0969 26.0446 56.5645 25.8309C56.0321 25.6172 55.3874 25.5122 54.6232 25.5122C53.8589 25.5122 53.2106 25.6172 52.6818 25.8309C52.153 26.0446 51.885 26.3597 51.885 26.7871V34.1721Z" fill="#E1E1E1"/>
<path d="M63.5945 37.9932V26.3416C63.5945 25.2043 64.3877 24.3314 65.9741 23.7193C66.8325 23.3897 67.7995 23.2231 68.8789 23.2231C69.9582 23.2231 70.9252 23.3897 71.7836 23.7193C73.37 24.3314 74.1632 25.2043 74.1632 26.3416V36.845L71.7438 36.903H71.617V26.7834C71.617 26.3597 71.3526 26.041 70.8202 25.8273C70.2914 25.6136 69.6431 25.5085 68.8789 25.5085C68.1146 25.5085 67.4663 25.6136 66.9375 25.8273C66.4087 26.041 66.1407 26.3561 66.1407 26.7834V36.8414L63.7213 37.9859H63.5945V37.9932Z" fill="#E1E1E1"/>
<path d="M77.8539 37.9932V26.3416C77.8539 25.2043 78.647 24.3314 80.2334 23.7193C81.0918 23.3897 82.0588 23.2231 83.1382 23.2231C84.2175 23.2231 85.1845 23.3897 86.0429 23.7193C87.6293 24.3314 88.4225 25.2043 88.4225 26.3416V36.845L86.0031 37.9895H85.8763V26.7834C85.8763 26.3597 85.6119 26.041 85.0795 25.8273C84.5507 25.6136 83.9024 25.5085 83.1382 25.5085C82.374 25.5085 81.7256 25.6136 81.1968 25.8273C80.668 26.041 80.4 26.3561 80.4 26.7834V36.8414L77.9806 37.9859H77.8539V37.9932Z" fill="#E1E1E1"/>
<path d="M102.682 31.8432V34.6176C102.682 35.7367 101.889 36.6132 100.302 37.2398C99.4439 37.5694 98.4768 37.736 97.3975 37.736C96.3182 37.736 95.3511 37.5694 94.4928 37.2398C92.9064 36.6132 92.1132 35.7367 92.1132 34.6176V26.3416C92.1132 25.2224 92.9064 24.3459 94.4928 23.7193C95.3511 23.3897 96.3182 23.2231 97.3975 23.2231C98.4768 23.2231 99.4439 23.3897 100.302 23.7193C101.889 24.3459 102.682 25.2224 102.682 26.3416V27.9714L94.6594 34.1395C94.6594 34.5741 94.9238 34.9001 95.4562 35.1174C95.985 35.3347 96.6333 35.4434 97.3975 35.4434C98.1617 35.4434 98.81 35.3383 99.3388 35.1246C99.8676 34.9109 100.136 34.5958 100.136 34.1685V32.9841L102.555 31.8396H102.682V31.8432ZM94.6594 31.4883L100.136 27.2869V26.9573C100.136 26.4756 99.8712 26.117 99.3388 25.878C98.8064 25.6389 98.1617 25.5194 97.3975 25.5194C96.6333 25.5194 95.985 25.6244 95.4562 25.8381C94.9274 26.0518 94.6594 26.3669 94.6594 26.7943V31.4919V31.4883Z" fill="#E1E1E1"/>
<path d="M116.938 31.8432V34.6176C116.938 35.7367 116.144 36.6132 114.558 37.2398C113.7 37.5694 112.733 37.736 111.653 37.736C110.574 37.736 109.607 37.5694 108.748 37.2398C107.162 36.6132 106.369 35.7367 106.369 34.6176V26.3416C106.369 25.2224 107.162 24.3459 108.748 23.7193C109.607 23.3897 110.574 23.2231 111.653 23.2231C112.733 23.2231 113.7 23.3897 114.558 23.7193C116.144 24.3459 116.938 25.2224 116.938 26.3416V27.9714L114.518 29.1159H114.391V26.7871C114.391 26.3633 114.127 26.0446 113.595 25.8309C113.062 25.6172 112.417 25.5122 111.653 25.5122C110.889 25.5122 110.241 25.6172 109.712 25.8309C109.183 26.0446 108.915 26.3597 108.915 26.7871V34.1721C108.915 34.5958 109.179 34.9146 109.712 35.1283C110.244 35.3419 110.889 35.447 111.653 35.447C112.417 35.447 113.066 35.3419 113.595 35.1283C114.123 34.9146 114.391 34.5995 114.391 34.1721V32.9877L116.811 31.8432H116.938Z" fill="#E1E1E1"/>
<path d="M122.309 37.9934V25.7949H119.035V25.6681L120.067 23.4769H122.309V18.8916L124.728 17.7471H124.855V23.4769H128.129V23.6036L127.097 25.7949H124.855V36.8488L122.436 37.9934H122.309Z" fill="#E1E1E1"/>
<path d="M45.6445 14.0961V16.8705C45.6445 17.9897 44.8513 18.8662 43.2649 19.4927C42.4065 19.8223 41.4395 19.9889 40.3602 19.9889C39.2809 19.9889 38.3138 19.8223 37.4554 19.4927C35.8691 18.8662 35.0759 17.9897 35.0759 16.8705V8.59451C35.0759 7.47535 35.8691 6.59886 37.4554 5.97227C38.3138 5.64268 39.2809 5.47607 40.3602 5.47607C41.4395 5.47607 42.4065 5.64268 43.2649 5.97227C44.8513 6.59886 45.6445 7.47535 45.6445 8.59451V10.2244L43.2251 11.3689H43.0983V9.04C43.0983 8.61624 42.8339 8.29752 42.3015 8.08383C41.7727 7.87013 41.1244 7.7651 40.3602 7.7651C39.596 7.7651 38.9477 7.87013 38.4189 8.08383C37.8901 8.29752 37.622 8.61262 37.622 9.04V16.425C37.622 16.8488 37.8864 17.1675 38.4189 17.3812C38.9477 17.5949 39.596 17.6999 40.3602 17.6999C41.1244 17.6999 41.7727 17.5949 42.3015 17.3812C42.8303 17.1675 43.0983 16.8524 43.0983 16.425V15.2407L45.5177 14.0961H45.6445Z" fill="#888888"/>
<path d="M49.3352 16.8705V8.59451C49.3352 7.47535 50.1284 6.59886 51.7148 5.97227C52.5732 5.64268 53.5402 5.47607 54.6195 5.47607C55.6988 5.47607 56.6659 5.64268 57.5243 5.97227C59.1106 6.59886 59.9038 7.47535 59.9038 8.59451V16.8705C59.9038 17.9897 59.1106 18.8662 57.5243 19.4927C56.6659 19.8223 55.6988 19.9889 54.6195 19.9889C53.5402 19.9889 52.5732 19.8223 51.7148 19.4927C50.1284 18.8662 49.3352 17.9897 49.3352 16.8705ZM51.8814 16.425C51.8814 16.8488 52.1458 17.1675 52.6782 17.3812C53.2106 17.5949 53.8553 17.6999 54.6195 17.6999C55.3837 17.6999 56.0321 17.5949 56.5608 17.3812C57.0896 17.1675 57.3577 16.8524 57.3577 16.425V9.04C57.3577 8.61624 57.0933 8.29752 56.5608 8.08383C56.0284 7.87013 55.3837 7.7651 54.6195 7.7651C53.8553 7.7651 53.207 7.87013 52.6782 8.08383C52.1494 8.29752 51.8814 8.61262 51.8814 9.04V16.425Z" fill="#888888"/>
<path d="M63.5909 16.8707V8.59471C63.5909 7.45744 64.3841 6.58457 65.9705 5.97247C66.8288 5.64288 67.7959 5.47628 68.8752 5.47628C69.8857 5.47628 70.7984 5.62115 71.6133 5.9109V1.14451L74.0327 0H74.1595V16.8707C74.1595 18.008 73.3663 18.8808 71.7799 19.4929C70.9216 19.8225 69.9545 19.9891 68.8752 19.9891C67.7959 19.9891 66.8288 19.8225 65.9705 19.4929C64.3841 18.8664 63.5909 17.9899 63.5909 16.8707ZM66.1371 16.4252C66.1371 16.849 66.4015 17.1677 66.9339 17.3814C67.4627 17.5951 68.111 17.7001 68.8752 17.7001C69.6394 17.7001 70.2877 17.5951 70.8165 17.3814C71.3453 17.1677 71.6133 16.8526 71.6133 16.4252V9.0402C71.6133 8.61644 71.3489 8.29772 70.8165 8.08403C70.2877 7.87034 69.6394 7.7653 68.8752 7.7653C68.111 7.7653 67.4627 7.87034 66.9339 8.08403C66.4051 8.29772 66.1371 8.61282 66.1371 9.0402V16.4252Z" fill="#888888"/>
<path d="M89.0563 14.0961V16.8705C89.0563 17.9897 88.2631 18.8662 86.6767 19.4927C85.8183 19.8223 84.8513 19.9889 83.772 19.9889C82.6927 19.9889 81.7256 19.8223 80.8672 19.4927C79.2809 18.8662 78.4877 17.9897 78.4877 16.8705V8.59451C78.4877 7.47535 79.2809 6.59886 80.8672 5.97227C81.7256 5.64268 82.6927 5.47607 83.772 5.47607C84.8513 5.47607 85.8183 5.64268 86.6767 5.97227C88.2631 6.59886 89.0563 7.47535 89.0563 8.59451V10.2244L81.0338 16.3924C81.0338 16.827 81.2982 17.153 81.8307 17.3703C82.3595 17.5876 83.0078 17.6963 83.772 17.6963C84.5362 17.6963 85.1845 17.5913 85.7133 17.3776C86.2421 17.1639 86.5101 16.8488 86.5101 16.4214V15.237L88.9295 14.0925H89.0563V14.0961ZM81.0338 13.7412L86.5101 9.53982V9.21023C86.5101 8.72852 86.2457 8.36995 85.7133 8.13091C85.1845 7.89187 84.5362 7.77234 83.772 7.77234C83.0078 7.77234 82.3595 7.87738 81.8307 8.09107C81.3019 8.30476 81.0338 8.61986 81.0338 9.04724V13.7448V13.7412Z" fill="#888888"/>
<path d="M77.8611 36.2656V36.559C77.8611 38.2323 74.1414 38.0693 74.1414 36.559V36.2656H71.6025V37.0045C71.6025 38.1381 72.3957 39.011 73.9784 39.6195C75.2859 40.1229 76.7093 40.1265 78.0277 39.6195C79.6104 39.011 80.4 38.1381 80.4 37.0045V36.2656H77.8611Z" fill="#81FE88"/>
</g>
<defs>
<clipPath id="clip0_449_1258">
<rect width="127.258" height="40" fill="white" transform="translate(0.87088)"/>
</clipPath>
</defs>
</svg>
